<svg xmlns="http://www.w3.org/2000/svg" width="188.389" height="24.001" viewBox="0 0 188.389 24.001">
  <g id="Groupe_1059" data-name="Groupe 1059" transform="translate(0 0)">
    <g id="Gigabyte_Technology_logo_20080107" transform="translate(0 0)">
      <path id="Tracé_116" data-name="Tracé 116" d="M299.278.692h-1.394V.128h3.428V.692H299.92V4.6h-.642Z" transform="translate(-118.479 -0.051)" fill="#0048ff"/>
      <path id="Tracé_117" data-name="Tracé 117" d="M304.65.128h1.061l1.41,3.709L308.5.128h1.058V4.6h-.642V.731h-.011L307.425,4.6h-.636L305.309.731H305.3V4.6h-.646Z" transform="translate(-121.17 -0.051)" fill="#0048ff"/>
      <rect id="Rectangle_21" data-name="Rectangle 21" width="6.386" height="23.865" transform="translate(27.868)" fill="#0048ff"/>
      <path id="Tracé_118" data-name="Tracé 118" d="M113.516.033h7.833l9.241,23.981h-7.007L121.8,18.9h-9L110.9,24.014h-6.493L113.516.033m3.915,4.947h-.067l-3.094,9.381h6.012L117.432,4.98" transform="translate(-41.527 -0.013)" fill="#0048ff"/>
      <path id="Tracé_119" data-name="Tracé 119" d="M153.044.028h11.032c4.464,0,7.8,1.957,7.8,6.079,0,3.028-1.545,4.713-4.225,5.6v.067c3.19.657,4.843,2.373,4.843,5.3,0,5.737-5.051,6.937-9.345,6.937h-10.1V.028m6.389,19.454h1.895c2.335,0,4.774-.348,4.774-2.785,0-2.615-2.508-2.852-4.7-2.852h-1.965v5.637m0-9.968h1.789c2.1,0,4.259-.516,4.259-2.545,0-2.2-2.058-2.4-4.188-2.4h-1.86V9.514" transform="translate(-60.871 -0.011)" fill="#0048ff"/>
      <path id="Tracé_120" data-name="Tracé 120" d="M193.85,14.979,184.988.028h7.351l4.709,9.622L201.686.028h7.356l-8.8,14.951v9.033H193.85V14.979" transform="translate(-73.576 -0.011)" fill="#0048ff"/>
      <path id="Tracé_121" data-name="Tracé 121" d="M235.2,4.77h-5.906V.028H247.5V4.77H241.6V24.012h-6.4V4.77" transform="translate(-91.198 -0.011)" fill="#0048ff"/>
      <path id="Tracé_122" data-name="Tracé 122" d="M264.58.028h16.906v4.54H270.968V9.514h9.93v4.534h-9.93v5.434h10.893v4.53H264.58V.028" transform="translate(-105.233 -0.011)" fill="#0048ff"/>
      <path id="Tracé_123" data-name="Tracé 123" d="M13.356,5.33C9.1,5.684,6.783,8.475,6.783,12.087a6.739,6.739,0,0,0,6.4,6.464l.69-.007h1.162a.755.755,0,0,0,.776-.751V10.255H22.37c0,4.254-.016,13.809-.016,13.809s-6.477-.005-10.237-.005A12.107,12.107,0,0,1,0,12.087,11.926,11.926,0,0,1,12.321.165L22.137.2l0,5.134H13.356" transform="translate(0 -0.062)" fill="#0048ff"/>
      <path id="Tracé_124" data-name="Tracé 124" d="M76.413,5.331c-4.253.353-6.57,3.144-6.57,6.756a6.736,6.736,0,0,0,6.394,6.464l.688-.007h1.165a.751.751,0,0,0,.77-.751V10.255h6.551c0,4.254-.011,13.809-.011,13.809s-6.471-.005-10.229-.005A12.1,12.1,0,0,1,63.063,12.087,11.921,11.921,0,0,1,75.382.166l9.8.031,0,5.134H76.413" transform="translate(-25.082 -0.063)" fill="#0048ff"/>
    </g>
  </g>
</svg>
