<svg xmlns="http://www.w3.org/2000/svg" width="158.516" height="38.437" viewBox="0 0 158.516 38.437">
  <g id="Groupe_1064" data-name="Groupe 1064" transform="translate(0 0)">
    <g id="Nvidia_logo" transform="translate(0 0)">
      <path id="path17" d="M373.5,276.107a1.607,1.607,0,0,1-1.61,1.677v-.006a1.674,1.674,0,1,1,1.61-1.671Zm.653,0a2.268,2.268,0,1,0-2.262,2.179,2.147,2.147,0,0,0,2.262-2.179m-2.638.184h.242l.561.986h.616l-.622-1.027a.556.556,0,0,0,.586-.608c0-.537-.37-.71-1-.71h-.908v2.346h.522v-.986m0-.4v-.565h.363c.2,0,.467.016.467.257,0,.262-.139.308-.372.308h-.458" transform="translate(-215.634 -250.108)" fill="#fff"/>
      <path id="path19" d="M113.5,228.663l2.821,7.717h-5.729Zm-3.021-3-6.5,16.471h4.59l1.028-2.91h7.693l.973,2.91h4.983L116.7,225.656ZM97.429,242.135h4.657V225.653H97.428ZM65.1,225.652l-3.886,13.063L57.49,225.653H52.465l5.316,16.483H64.49l5.359-16.483Zm18.825,3.589h2c2.9,0,4.782,1.3,4.782,4.687s-1.878,4.688-4.782,4.688h-2ZM79.3,225.652v16.483h7.55c4.023,0,5.336-.669,6.757-2.169,1-1.053,1.652-3.365,1.652-5.892a9.782,9.782,0,0,0-1.507-5.671c-1.725-2.3-4.21-2.752-7.919-2.752Zm-44.116-.023v16.506h4.7V229.6h3.639a3.42,3.42,0,0,1,2.644.92c.736.784,1.036,2.049,1.036,4.364v7.248h4.551v-9.12c0-6.509-4.149-7.386-8.208-7.386Zm36.621.023,0,16.483h4.655V225.652Z" transform="translate(29.778 -214.663)"/>
      <path id="path21" d="M62.716,48.059a21.948,21.948,0,0,1,15.738-8.551V36.7c-11.615.933-21.673,10.77-21.673,10.77s5.7,16.468,21.673,17.976V62.456C66.73,60.981,62.716,48.059,62.716,48.059Zm15.738,8.454v2.737c-8.861-1.58-11.321-10.791-11.321-10.791a19.16,19.16,0,0,1,11.321-5.477v3l-.014,0C74.732,45.537,71.835,49,71.835,49s1.624,5.832,6.619,7.511m0-25V36.7c.341-.026.682-.048,1.025-.06,13.205-.445,21.809,10.83,21.809,10.83S91.406,59.484,81.111,59.484a15.168,15.168,0,0,1-2.657-.235v3.206a17.512,17.512,0,0,0,2.213.143c9.58,0,16.509-4.893,23.218-10.684,1.112.891,5.666,3.058,6.6,4.007-6.379,5.34-21.245,9.645-29.673,9.645-.812,0-1.593-.049-2.359-.123v4.506h36.415V31.512Zm0,11.469V39.509c.337-.024.678-.042,1.025-.053,9.5-.3,15.726,8.16,15.726,8.16s-6.729,9.345-13.943,9.345a8.739,8.739,0,0,1-2.807-.449V45.984c3.7.447,4.441,2.08,6.663,5.785L90.06,47.6a13.089,13.089,0,0,0-9.691-4.732,17.8,17.8,0,0,0-1.915.113" transform="translate(-56.781 -31.512)" fill="#7eb81d"/>
    </g>
  </g>
</svg>
