<svg xmlns="http://www.w3.org/2000/svg" width="159.092" height="51.409" viewBox="0 0 159.092 51.409">
  <g id="Groupe_18" data-name="Groupe 18" transform="translate(0 0)">
    <path id="Tracé_108" data-name="Tracé 108" d="M497.268,309.995l7.544-20.806a65.192,65.192,0,0,0-11.277,1.133L486.4,309.995ZM495.98,283.57l-1.448,3.995a65.575,65.575,0,0,1,11.277-1.131l1.45-3.994a65.375,65.375,0,0,0-11.279,1.13Z" transform="translate(-348.167 -270.805)" fill-rule="evenodd"/>
    <path id="Tracé_109" data-name="Tracé 109" d="M452.554,305.055a58.2,58.2,0,0,0,10.459.943c2.351,0,6.266-.277,6.615-3.306.14-1.185-1.145-2-3.2-3.126-2.347-1.3-4.154-1.984-6.193-3.35a5,5,0,0,1-2.231-5.786c2.059-6.819,12.024-7.99,17.912-7.99a62.355,62.355,0,0,1,11.84,1.13l-1.381,3.8c-3.542-.646-16.473-2.842-17.075,2.365-.137,1.188,1.063,1.957,3.117,3.087,2.346,1.294,4.237,2.023,6.276,3.388A5,5,0,0,1,480.929,302c-2.065,6.815-12.025,7.99-17.914,7.99a62.243,62.243,0,0,1-11.839-1.135l1.378-3.8Z" transform="translate(-344.075 -270.805)" fill-rule="evenodd"/>
    <path id="Tracé_110" data-name="Tracé 110" d="M428.523,309.995l6.292-17.36c2.475-6.822-9.256-4.1-12.044,3.579l-5,13.781H406.908l6.292-17.36c2.474-6.825-9.262-4.1-12.046,3.58l-5,13.779H385.292l9.991-27.555c3.46,0,5.331.8,6.905,2.342a4.372,4.372,0,0,1,1.129,2.08,36.144,36.144,0,0,1,5.053-2.631,22.755,22.755,0,0,1,8.528-1.791c3.458,0,5.331.8,6.9,2.342a4.362,4.362,0,0,1,1.131,2.08,36.192,36.192,0,0,1,5.053-2.631,22.749,22.749,0,0,1,8.526-1.791c3.461,0,5.332.8,6.9,2.342s1.534,4.36.966,5.922l-6.993,19.291Z" transform="translate(-336.422 -270.805)" fill-rule="evenodd"/>
    <path id="Tracé_111" data-name="Tracé 111" d="M330.622,277.694c6.076-3.8,13.518-7.217,20.624-8.384l.214-.034.208.034c7.105,1.167,14.548,4.588,20.624,8.384l.617.385,0,.727c.05,9.19-1.436,18.994-5.652,27.252-3.3,6.462-8.378,12.055-15.374,14.476l-.426.149-.432-.149c-7-2.422-12.074-8.015-15.374-14.476C331.437,297.8,329.95,288,330,278.806l0-.727.617-.385Z" transform="translate(-329.999 -269.276)" fill="#8a8a8b" fill-rule="evenodd"/>
    <path id="Tracé_112" data-name="Tracé 112" d="M331.5,278.989c6.361-3.974,13.653-7.134,20.131-8.2h.006c6.479,1.064,13.771,4.225,20.131,8.2.118,21.253-8.09,36.3-20.131,40.47v0h-.006v0c-12.042-4.172-20.249-19.217-20.131-40.47Z" transform="translate(-330.173 -269.452)" fill="#ed1c24" fill-rule="evenodd"/>
    <path id="Tracé_113" data-name="Tracé 113" d="M357.938,287.866c-2.649,3.067-6.862,3.5-9.772,3.633-.33.036-.987.075-1.157.31a.387.387,0,0,0,.137.476c3.291,2.322,7.578.624,9.831-.486-2.6,2.334-6.988,2.747-10.733,1.374-.477-.163-.783-.212-.94-.043a.513.513,0,0,0-.018.595c1.051,1.96,1.811,3.473,4.485,4.321-3.1-.182-5.05-3.131-5.509-4.706-.043,2.639,2.256,4.455,3.2,5.5-1.236.045-2.44.141-2.965,1.067-.371.584-.361,1.433-.874,2.2-1.435-2.684-2.577-6.434-1.5-9.71a9.5,9.5,0,0,1,5.619-6.239,25.676,25.676,0,0,0-2.318,2.941c-.578,1.076.132,1.459.929.076,1.115,2.69,9.107,1.078,11.205-1.486l.762-.319-.378.487Zm-5.054,23.271a.427.427,0,0,1,.473-.152.48.48,0,0,1,.283.738c-.247.337-.655.578-.924.9a1.639,1.639,0,0,0-.244.471h0a2.415,2.415,0,0,1,.415-1.96Zm-3.732-1.168a.6.6,0,0,1,.719.009.709.709,0,0,1,.125.731,3.292,3.292,0,0,1-.715.541,2.342,2.342,0,0,0-.978.944,3.666,3.666,0,0,1,.279-1.451,1.886,1.886,0,0,1,.57-.773Zm8.879-.46a.408.408,0,0,1,.377.042.524.524,0,0,1,.225.354,5,5,0,0,0,.188.949,3.687,3.687,0,0,0,.2.372,2,2,0,0,1-.753-.5,1.594,1.594,0,0,1-.467-.762.4.4,0,0,1,.231-.452ZM346.4,307.732a.565.565,0,0,1,.6.132c.166.169.095.394.08.589-.007.133-.133.24-.272.307-.381.179-.818.346-1.193.533a1.675,1.675,0,0,0-.61.507,3.277,3.277,0,0,1,.34-.99,2.338,2.338,0,0,1,1.05-1.077ZM362.2,305.11c-.033-.165.125-.3.291-.381a1.923,1.923,0,0,1,.831.284,1.5,1.5,0,0,0,.493.106,2,2,0,0,1-1.068.32c-.239-.008-.512-.128-.547-.329Zm-18.107-1.421a.473.473,0,0,1,.354.006.526.526,0,0,1,.408.528c-.018.237.018.528-.263.683a15.161,15.161,0,0,0-1.586.809,1.721,1.721,0,0,0-.4.408,3.779,3.779,0,0,1,.785-1.882,2.248,2.248,0,0,1,.7-.552Zm6.555-2.57a3.911,3.911,0,0,1,1.175-.25,1.824,1.824,0,0,0-.9.5c-.077.111-.154.273-.021.377.149.076.346.051.5.118.154.1.1.27.077.4a3.915,3.915,0,0,1-.591,1.2.4.4,0,0,0-.094.286c.12.017.205-.078.293-.126a5.029,5.029,0,0,0,.992-.8c.114-.144.293-.273.313-.452.027-.146-.232-.186-.251-.315a1.221,1.221,0,0,1,.637-.452,1.616,1.616,0,0,1,1.745.283,4.477,4.477,0,0,0-.856-.233c-.156-.009-.333.058-.365.187-.036.164-.015.331-.054.5a2.183,2.183,0,0,1-1.2,1.438,2.417,2.417,0,0,0-.646.323.553.553,0,0,0-.2.4,1.433,1.433,0,0,0,.451.06,2.239,2.239,0,0,0,1.008-.071c.3-.113.412-.393.719-.5a1.877,1.877,0,0,1,2.136.665c-.246-.117-.453-.281-.716-.377a.936.936,0,0,0-.824.1,2.007,2.007,0,0,0-.527.612.328.328,0,0,1-.232.183c-.208-.006-.4-.136-.611-.082-.293.077-.554.217-.85.29a1.468,1.468,0,0,1-.62,0,6.759,6.759,0,0,0-1.085-.174.623.623,0,0,0-.472.135.955.955,0,0,0-.148.565,8.247,8.247,0,0,1-.316-1.413,6.716,6.716,0,0,1-.06-1.79,1.544,1.544,0,0,1,.261.81.337.337,0,0,0,.281.309.711.711,0,0,0,.529-.338,1.449,1.449,0,0,0,.364-.968c.005-.156-.244-.162-.332-.273a.6.6,0,0,1-.085-.639,1.014,1.014,0,0,1,.584-.5Zm13.648-.778c.011-.124.186-.159.317-.153a6.768,6.768,0,0,0,.734-.007,1.379,1.379,0,0,1-.726.42c-.194.033-.369-.11-.325-.26Zm.179-3.033a3.186,3.186,0,0,0,.527-.242.812.812,0,0,1-.444.525.148.148,0,0,1-.083-.283ZM355.7,294.17a2.584,2.584,0,0,0,1.674,2.142,10.331,10.331,0,0,0,3.609-.005,3.941,3.941,0,0,1,2.471.277,1.979,1.979,0,0,1,.654.856,9.1,9.1,0,0,1,.429.98,1.133,1.133,0,0,1-.123.926,2.738,2.738,0,0,0-.481,1.221c-.048.416-.134.829-.21,1.243a4.493,4.493,0,0,1-.392,1.245,12.63,12.63,0,0,1-.8.983,6.491,6.491,0,0,0-.837,1.8c-.166.484-.232.985-.371,1.474a1.635,1.635,0,0,1-.824,1.072,21.226,21.226,0,0,1-2.256.733,6.8,6.8,0,0,0-1.653,1.091,2.875,2.875,0,0,1-1.38.769c-1.115.171-1.4-.717-3.41-.01a.906.906,0,0,1-.764-.035c-.48-.233-.534-.89-1.072-1.175a7.172,7.172,0,0,0-1.785-.38.886.886,0,0,1-.629-.407c-.171-.35-.175-.734-.325-1.088-.39-.792-1.67-1.049-2.036-1.778-.371-.763.131-1.161.133-1.774-.039-.818-.59-1.229-1.673-1.267a6.485,6.485,0,0,0,1.023-2.507,1.688,1.688,0,0,1,.573-.921,4.416,4.416,0,0,1,1.175-.392,2.414,2.414,0,0,1,1.372.065c1.023.562.79,2.041.249,2.647-.735.831-2.58.666-2.262-.639.38.323.749.81,1.278.232a.256.256,0,0,0,.059-.2.8.8,0,0,0-.526-.528.718.718,0,0,0-.475-.045,1.769,1.769,0,0,0-1.091.891c-.414.817.482,1.47,1.516,1.312a4.043,4.043,0,0,0,2.029-1.094,17.673,17.673,0,0,0,.089,2.886,7.939,7.939,0,0,0,.73,2.328,3.257,3.257,0,0,0,1.657,1.471,6.717,6.717,0,0,0,2.567.325,12.649,12.649,0,0,0,4.913-1.273c1.939-1.024,2.217-1.845,3.166-3.451a18.029,18.029,0,0,0,1.1-2.472,7.2,7.2,0,0,0,.522-2.515,2.21,2.21,0,0,0-.465-1.465c-.85-1.073-2.657-.617-4.327-.666a.694.694,0,0,0-.012.811c.409.44,1.4.373,2.066.425-2.857,1.163-5.414-.106-6.123-2.35.594.745,1.556,2.261,3.013,1.812.53-.16.287-.536.118-.825-.042-.1-.227-.1-.334-.141a2.165,2.165,0,0,1-1.55-2.609Zm-9.166-.48c.214.167.285.394.5.561,2.021,1.54,3.807,1.533,6.386,1.618-2.286.561-5.2.217-6.825-1.325a2.375,2.375,0,0,1-.52-.661c-.118-.357.2-.4.458-.194Zm9.564-.423c2.066-.113,4.178.669,4.842,2.674a2.834,2.834,0,0,0-1.819-.46.286.286,0,0,0-.243.189c-.045.178.061.318.13.482a2.462,2.462,0,0,1-2.465-.977,3.523,3.523,0,0,0,.8.325,1.6,1.6,0,0,0,1.433-.482c.2-.219.073-.5-.164-.668a9.306,9.306,0,0,0-2.513-1.084Zm2.112-3.732c.269-.2.5-.427.753-.637-1.155,1.76-3.966,3.154-6.178,3.545-1.116.223-3.559.514-4.586-.05-.113-.06-.228-.194-.123-.294a1.15,1.15,0,0,1,.648-.1c.435.042.9-.011,1.333-.01a19.693,19.693,0,0,0,3.389-.326,11.963,11.963,0,0,0,4.765-2.126Zm-20.9-6.389a1.554,1.554,0,0,1,.955.108,1.768,1.768,0,0,1,.739.723.5.5,0,0,1,.11.44c-.1.023-.2.032-.3.057-.084.081-.057.2-.055.293a4.6,4.6,0,0,0,.507,1.426.467.467,0,0,0,.161.17,6.37,6.37,0,0,1,.17-1.6c.039-.076.082-.176.2-.194.189,0,.332.157.524.127.16-.075.136-.25.123-.375-.049-.322-.369-.55-.58-.81a2.7,2.7,0,0,1,1.107,1.1.57.57,0,0,1-.65.85,1.145,1.145,0,0,0-.208,1.149c.027.1.049.269.224.255a3.617,3.617,0,0,0,.888-.472,9.749,9.749,0,0,0-1.737,2.371,2.069,2.069,0,0,0-.008-.66.537.537,0,0,0-.3-.275c-.341-.168-.737-.256-1.084-.416a2.478,2.478,0,0,1-.779-.768c-.142-.175-.422-.081-.6-.222a2.4,2.4,0,0,1-.078-.521c-.051-.269-.066-.628-.365-.8a2.112,2.112,0,0,0-1.07-.179v-.008a1.623,1.623,0,0,1,2,.48c.19.216.148.5.331.72a1.9,1.9,0,0,0,.528.373,2.111,2.111,0,0,0,.662.3.784.784,0,0,0-.178-.75,2.221,2.221,0,0,1-.54-1.224,1.3,1.3,0,0,1,.148-.863c.072-.138.2-.3.086-.447-.207-.242-.614-.264-.938-.354Zm12.786-4.924a34.7,34.7,0,0,0,3.143,1.851c-.223.178-.483.449-.78.444a7.572,7.572,0,0,1-2.363-2.294Zm1.351-2.021.02,0a13.3,13.3,0,0,0,4.859,4.008,4.108,4.108,0,0,0,1.744.5c.362.027.706-.214,1.066-.217a2.028,2.028,0,0,1,1.142.384.361.361,0,0,1,.173.24,2.028,2.028,0,0,0,.582,1.171,1.114,1.114,0,0,0,.924.129.7.7,0,0,0,.49.551c.28.057.514-.231.815-.149.125.163.2.319.324.483.117.11.313.141.449.236a2.728,2.728,0,0,1,1.077,1.237,2.91,2.91,0,0,0-1.129-.887c.02.7-.026,1.687-.509,2.06a2.384,2.384,0,0,0-.264-1.292,3.606,3.606,0,0,1-1.369.821c.206-.253.616-.532.485-.848a1.086,1.086,0,0,0-.848-.118,2.969,2.969,0,0,0-1.2.64,5.475,5.475,0,0,0-.277-.695c-.254.042-1.166.347-.908.753.4.491,1.034.3,1.413.372a1.014,1.014,0,0,1,.559.494c.022-.186.04-.373.067-.559a12.586,12.586,0,0,1,1.076,1.508c.456-.2.55-.414.6-1a1.568,1.568,0,0,1,.211.871.917.917,0,0,0,.289-.382,1.941,1.941,0,0,1-1.141,2.361c.206-.531.286-.991-.43-.992a15.458,15.458,0,0,0-1.754.273c.217-.114,1.179-.657,1.01-.973-.072-.124-.209-.161-.355-.216a5.23,5.23,0,0,0-1.069-.359c-.184-.028-.347.107-.506.172-.931-.444-1.259.105-1.922.2a1.789,1.789,0,0,1-1.667-.778c-.742-1.158.369-1.865,1.315-2.16-1.243-.145-1.746.28-2.043,1.522a10.842,10.842,0,0,0-1.631-.355c-4.135-.6-7.406.616-9.3,2.633a11.469,11.469,0,0,0-2.947,7.4c-.054,2.672.764,4.239,2.147,6.575a12.536,12.536,0,0,1-3.489-5.093c-.253.292-.171.655-.242.986-1.16-1.579.452-5.559,1.217-7.344a5.441,5.441,0,0,0-1.41,1.2c-.072-2.258,1.921-4.545,3.96-6.387a6.133,6.133,0,0,0-1.668.613c1.953-2.063,5.527-3.252,8.75-3.372a16.805,16.805,0,0,0-2.467-.442c2.518-.521,4.246-.541,5.946-1.669.791.514,1.715,1.037,2.168.9-1.36-.971-3.853-3.238-4.337-5.01Zm7.441,5.369a4.535,4.535,0,0,0,.5.579.914.914,0,0,0,.9.285,1.844,1.844,0,0,0-.237-.546.341.341,0,0,0-.246-.123c-.309-.054-.605-.141-.915-.2Z" transform="translate(-330.605 -270.08)" fill-rule="evenodd"/>
    <path id="Tracé_114" data-name="Tracé 114" d="M357.786,287.475c-2.649,3.068-6.863,3.505-9.772,3.634-.33.035-.987.074-1.157.31a.387.387,0,0,0,.137.476c3.29,2.322,7.577.624,9.831-.487-2.6,2.335-6.989,2.747-10.733,1.375-.477-.163-.783-.212-.94-.043a.51.51,0,0,0-.019.594c1.052,1.961,1.811,3.474,4.485,4.322-3.1-.182-5.05-3.131-5.509-4.707-.043,2.64,2.256,4.456,3.2,5.5-1.235.046-2.44.142-2.965,1.068-.371.584-.36,1.433-.874,2.2-1.435-2.684-2.576-6.433-1.5-9.71a9.5,9.5,0,0,1,5.619-6.239,25.765,25.765,0,0,0-2.319,2.941c-.577,1.077.132,1.459.93.076,1.115,2.691,9.107,1.079,11.2-1.485l.762-.319-.377.486Zm-5.055,23.272a.428.428,0,0,1,.473-.153.481.481,0,0,1,.284.739c-.247.336-.655.578-.924.9a1.645,1.645,0,0,0-.245.472h0a2.42,2.42,0,0,1,.415-1.96ZM349,309.58a.6.6,0,0,1,.719.009.713.713,0,0,1,.125.731,3.312,3.312,0,0,1-.715.541,2.339,2.339,0,0,0-.978.944,3.651,3.651,0,0,1,.28-1.451,1.886,1.886,0,0,1,.569-.773Zm8.879-.461a.41.41,0,0,1,.378.043.527.527,0,0,1,.225.354,5,5,0,0,0,.188.949,3.856,3.856,0,0,0,.2.372,1.992,1.992,0,0,1-.752-.506,1.589,1.589,0,0,1-.468-.761.4.4,0,0,1,.231-.453Zm-11.629-1.778a.568.568,0,0,1,.605.133c.166.169.094.394.08.589-.006.133-.133.239-.272.307-.381.179-.817.346-1.193.533a1.682,1.682,0,0,0-.61.507,3.3,3.3,0,0,1,.341-.991,2.349,2.349,0,0,1,1.049-1.077Zm15.793-2.621c-.034-.165.125-.3.29-.381a1.915,1.915,0,0,1,.831.284,1.5,1.5,0,0,0,.494.106,2,2,0,0,1-1.068.319c-.239-.007-.513-.127-.547-.328ZM343.936,303.3a.471.471,0,0,1,.354.005.53.53,0,0,1,.409.529c-.019.237.017.528-.263.683a15.085,15.085,0,0,0-1.587.809,1.735,1.735,0,0,0-.4.408,3.778,3.778,0,0,1,.785-1.882,2.238,2.238,0,0,1,.7-.552Zm6.555-2.57a3.9,3.9,0,0,1,1.175-.251,1.831,1.831,0,0,0-.9.5c-.077.111-.153.272-.02.377.149.076.346.051.5.118.155.1.1.271.078.4a3.883,3.883,0,0,1-.592,1.2.4.4,0,0,0-.093.287c.119.017.2-.078.293-.126a5.033,5.033,0,0,0,.992-.8c.115-.144.293-.273.313-.452.028-.146-.232-.186-.251-.315a1.224,1.224,0,0,1,.638-.452,1.615,1.615,0,0,1,1.745.283,4.448,4.448,0,0,0-.856-.233c-.157-.009-.334.058-.366.187-.035.164-.014.331-.054.5a2.178,2.178,0,0,1-1.2,1.438,2.422,2.422,0,0,0-.645.323.549.549,0,0,0-.2.4,1.429,1.429,0,0,0,.451.06,2.235,2.235,0,0,0,1.008-.071c.3-.113.412-.393.719-.5a1.879,1.879,0,0,1,2.137.664c-.246-.117-.454-.28-.716-.377a.938.938,0,0,0-.824.1,2.023,2.023,0,0,0-.528.613.328.328,0,0,1-.232.183c-.208-.006-.4-.136-.61-.082-.293.077-.554.217-.85.289a1.444,1.444,0,0,1-.621,0,6.848,6.848,0,0,0-1.085-.173.614.614,0,0,0-.472.135.955.955,0,0,0-.148.565,8.25,8.25,0,0,1-.316-1.413,6.72,6.72,0,0,1-.061-1.79,1.545,1.545,0,0,1,.262.81.335.335,0,0,0,.281.309.713.713,0,0,0,.529-.338,1.46,1.46,0,0,0,.364-.968c0-.157-.244-.162-.333-.273a.6.6,0,0,1-.085-.639,1.01,1.01,0,0,1,.585-.5Zm13.647-.778c.012-.124.187-.159.318-.153a6.76,6.76,0,0,0,.734-.007,1.387,1.387,0,0,1-.726.42c-.194.033-.369-.11-.326-.26Zm.179-3.033a3.141,3.141,0,0,0,.527-.243.814.814,0,0,1-.444.526.148.148,0,0,1-.083-.283Zm-8.768-3.138a2.582,2.582,0,0,0,1.674,2.142,10.327,10.327,0,0,0,3.608-.005,3.95,3.95,0,0,1,2.472.276,1.993,1.993,0,0,1,.654.857,8.921,8.921,0,0,1,.428.98,1.126,1.126,0,0,1-.123.926,2.748,2.748,0,0,0-.481,1.221c-.048.417-.133.83-.209,1.244a4.5,4.5,0,0,1-.393,1.245c-.2.363-.564.638-.8.983a6.479,6.479,0,0,0-.837,1.8c-.167.484-.232.985-.371,1.474a1.638,1.638,0,0,1-.825,1.072,21.133,21.133,0,0,1-2.256.732,6.811,6.811,0,0,0-1.653,1.092,2.873,2.873,0,0,1-1.381.768c-1.114.171-1.4-.716-3.41-.009a.907.907,0,0,1-.763-.035c-.48-.233-.535-.89-1.073-1.176a7.2,7.2,0,0,0-1.784-.379.886.886,0,0,1-.628-.407c-.171-.35-.176-.734-.326-1.088-.39-.793-1.669-1.049-2.036-1.778-.371-.763.131-1.161.134-1.774-.039-.818-.59-1.229-1.673-1.267a6.47,6.47,0,0,0,1.023-2.507,1.7,1.7,0,0,1,.573-.921,4.425,4.425,0,0,1,1.176-.392,2.407,2.407,0,0,1,1.372.065c1.023.561.789,2.041.249,2.646-.735.832-2.58.666-2.262-.638.38.323.748.81,1.278.232a.257.257,0,0,0,.059-.2.8.8,0,0,0-.526-.529.725.725,0,0,0-.475-.044,1.768,1.768,0,0,0-1.091.89c-.415.818.482,1.471,1.516,1.312a4.037,4.037,0,0,0,2.029-1.1,17.485,17.485,0,0,0,.089,2.887,7.885,7.885,0,0,0,.73,2.328,3.255,3.255,0,0,0,1.657,1.471,6.716,6.716,0,0,0,2.566.325,12.658,12.658,0,0,0,4.914-1.273c1.938-1.024,2.217-1.845,3.165-3.451a18.036,18.036,0,0,0,1.1-2.472,7.183,7.183,0,0,0,.521-2.515,2.2,2.2,0,0,0-.465-1.465c-.849-1.073-2.656-.617-4.326-.666a.693.693,0,0,0-.012.811c.409.439,1.4.373,2.066.425-2.857,1.162-5.415-.106-6.124-2.351.594.746,1.557,2.262,3.013,1.813.53-.16.288-.536.118-.826-.042-.1-.226-.1-.334-.141a2.164,2.164,0,0,1-1.549-2.608Zm-9.167-.48c.215.167.285.394.5.561,2.022,1.54,3.807,1.533,6.386,1.618-2.286.56-5.2.217-6.824-1.325a2.358,2.358,0,0,1-.52-.661c-.118-.357.2-.4.457-.194Zm9.564-.424c2.066-.112,4.179.669,4.843,2.674a2.838,2.838,0,0,0-1.82-.46.284.284,0,0,0-.243.189c-.045.178.061.317.13.482a2.463,2.463,0,0,1-2.464-.977,3.509,3.509,0,0,0,.8.325,1.6,1.6,0,0,0,1.433-.482c.2-.219.072-.5-.165-.668a9.3,9.3,0,0,0-2.513-1.085Zm2.113-3.731c.268-.2.5-.428.753-.637-1.155,1.76-3.966,3.153-6.178,3.545-1.117.223-3.559.514-4.586-.05-.113-.06-.228-.194-.123-.3a1.143,1.143,0,0,1,.648-.1c.435.041.9-.011,1.333-.01a19.867,19.867,0,0,0,3.389-.326,11.964,11.964,0,0,0,4.765-2.126Zm-20.9-6.389a1.544,1.544,0,0,1,.955.108,1.752,1.752,0,0,1,.739.723.493.493,0,0,1,.111.439c-.1.024-.2.032-.3.058-.085.081-.057.2-.056.293a4.6,4.6,0,0,0,.508,1.426.465.465,0,0,0,.16.17,6.406,6.406,0,0,1,.17-1.6c.04-.076.083-.176.2-.194.189,0,.331.157.524.127.16-.075.136-.25.123-.375-.05-.323-.369-.55-.581-.811a2.686,2.686,0,0,1,1.107,1.1.57.57,0,0,1-.649.85,1.147,1.147,0,0,0-.209,1.149c.028.1.049.269.224.255a3.618,3.618,0,0,0,.888-.472,9.706,9.706,0,0,0-1.736,2.371,2.092,2.092,0,0,0-.009-.66.531.531,0,0,0-.3-.275c-.341-.168-.736-.256-1.084-.417a2.462,2.462,0,0,1-.778-.767c-.143-.175-.422-.081-.6-.222a2.345,2.345,0,0,1-.078-.521c-.051-.269-.066-.628-.365-.8a2.113,2.113,0,0,0-1.07-.179v-.008a1.622,1.622,0,0,1,2,.48c.19.216.149.5.331.72a1.948,1.948,0,0,0,.528.373,2.085,2.085,0,0,0,.663.3.787.787,0,0,0-.178-.75,2.214,2.214,0,0,1-.539-1.223,1.291,1.291,0,0,1,.148-.863c.072-.139.2-.3.087-.447-.207-.243-.615-.264-.938-.354Zm12.786-4.924a34.89,34.89,0,0,0,3.142,1.85c-.223.179-.483.45-.779.445a7.57,7.57,0,0,1-2.363-2.294Zm1.351-2.022.02,0a13.293,13.293,0,0,0,4.859,4.007,4.082,4.082,0,0,0,1.743.5c.363.028.706-.213,1.066-.216a2.022,2.022,0,0,1,1.142.384.361.361,0,0,1,.174.24,2.027,2.027,0,0,0,.581,1.171,1.119,1.119,0,0,0,.925.129.7.7,0,0,0,.489.552c.281.057.515-.231.816-.15.124.163.2.32.324.483.116.111.313.141.448.237a2.721,2.721,0,0,1,1.077,1.236,2.911,2.911,0,0,0-1.129-.887c.02.7-.027,1.687-.509,2.06a2.393,2.393,0,0,0-.265-1.292,3.611,3.611,0,0,1-1.369.821c.207-.253.617-.533.486-.849a1.082,1.082,0,0,0-.848-.118,2.942,2.942,0,0,0-1.2.64,5.409,5.409,0,0,0-.278-.695c-.253.042-1.166.346-.907.753.4.491,1.034.3,1.413.372a1.016,1.016,0,0,1,.559.494c.022-.186.039-.373.067-.559a12.689,12.689,0,0,1,1.076,1.508c.455-.2.549-.414.6-1a1.559,1.559,0,0,1,.21.87.916.916,0,0,0,.29-.381,1.941,1.941,0,0,1-1.141,2.361c.206-.531.285-.992-.43-.992a15.22,15.22,0,0,0-1.754.273c.217-.115,1.178-.657,1.01-.974-.073-.123-.209-.16-.356-.215a5.221,5.221,0,0,0-1.069-.359c-.185-.028-.348.107-.506.171-.931-.444-1.259.106-1.923.205a1.786,1.786,0,0,1-1.666-.779c-.743-1.157.369-1.864,1.315-2.16-1.243-.144-1.746.281-2.043,1.522a11.053,11.053,0,0,0-1.63-.355c-4.135-.6-7.407.617-9.3,2.634a11.47,11.47,0,0,0-2.948,7.4c-.053,2.671.764,4.238,2.147,6.574a12.525,12.525,0,0,1-3.489-5.092c-.253.292-.172.654-.243.986-1.16-1.579.452-5.559,1.217-7.344a5.437,5.437,0,0,0-1.409,1.2c-.073-2.258,1.921-4.545,3.959-6.388a6.173,6.173,0,0,0-1.667.614c1.952-2.063,5.526-3.252,8.75-3.373a16.963,16.963,0,0,0-2.467-.441c2.518-.522,4.246-.541,5.945-1.67.791.515,1.716,1.038,2.168.9-1.36-.971-3.853-3.239-4.336-5.011Zm7.441,5.369a4.53,4.53,0,0,0,.5.58.916.916,0,0,0,.9.286,1.867,1.867,0,0,0-.237-.546.343.343,0,0,0-.246-.123c-.309-.054-.605-.141-.915-.2Z" transform="translate(-330.587 -270.035)" fill="#fff" fill-rule="evenodd"/>
    <path id="Tracé_115" data-name="Tracé 115" d="M331.5,278.989c6.36-3.974,13.653-7.134,20.131-8.2h.006c6.479,1.064,13.771,4.225,20.131,8.2,0,.148,0,.3,0,.444-6.291-3.956-13.46-7.114-19.841-8.231v0h-.006v0c-6.479.994-13.77,4.076-20.13,7.982-.084,15.063,4.016,27.052,10.7,34.289-6.854-7.128-11.075-19.2-10.991-34.483Z" transform="translate(-330.173 -269.452)" fill-rule="evenodd"/>
  </g>
</svg>
