<svg xmlns="http://www.w3.org/2000/svg" width="41.492" height="41.498" viewBox="0 0 41.492 41.498">
  <g id="guarantee-certificate" transform="translate(-0.003 0.006)">
    <path id="Tracé_20698" data-name="Tracé 20698" d="M41.3,33.049,32.357,24.1a1.289,1.289,0,0,1,.139-.1l2.385-1.269a2.641,2.641,0,0,0,1.139-3.508L34.833,16.8a1.347,1.347,0,0,1,0-1.19l1.188-2.429a2.641,2.641,0,0,0-1.139-3.508L32.494,8.407a1.345,1.345,0,0,1-.7-.963l-.467-2.663a2.641,2.641,0,0,0-2.982-2.168l-2.678.379a1.362,1.362,0,0,1-1.132-.368L22.591.744a2.641,2.641,0,0,0-3.688,0l-1.945,1.88a1.362,1.362,0,0,1-1.132.368l-2.678-.379a2.643,2.643,0,0,0-2.982,2.168L9.7,7.444a1.344,1.344,0,0,1-.7.963L6.614,9.674a2.641,2.641,0,0,0-1.139,3.508l1.188,2.429a1.347,1.347,0,0,1,0,1.19l-1.19,2.429a2.641,2.641,0,0,0,1.139,3.508L9,24.006a1.348,1.348,0,0,1,.139.1L.193,33.048a.648.648,0,0,0,.312,1.09L6.07,35.423l1.284,5.565a.648.648,0,0,0,1.091.312L18.483,31.261l.421.408a2.641,2.641,0,0,0,3.688,0l.421-.408L33.053,41.3a.648.648,0,0,0,1.09-.312l1.284-5.565,5.565-1.284a.648.648,0,0,0,.312-1.091ZM8.353,39.557l-1.112-4.82a.648.648,0,0,0-.486-.486l-4.82-1.112,7.826-7.826.407,2.318A2.644,2.644,0,0,0,13.15,29.8l2.678-.379a1.365,1.365,0,0,1,1.132.368l.591.571Zm11.453-8.821-.872-.843-1.072-1.037a2.635,2.635,0,0,0-1.838-.747,2.747,2.747,0,0,0-.377.027l-2.679.379a1.347,1.347,0,0,1-1.524-1.108l-.467-2.663a2.644,2.644,0,0,0-.324-.857A.662.662,0,0,0,10.6,23.8a2.626,2.626,0,0,0-.991-.936L7.221,21.593A1.349,1.349,0,0,1,6.637,19.8l1.188-2.427a2.641,2.641,0,0,0,0-2.33L6.637,12.614a1.349,1.349,0,0,1,.584-1.792L9.609,9.554A2.634,2.634,0,0,0,10.979,7.67l.467-2.663A1.345,1.345,0,0,1,12.968,3.9l2.678.379a2.639,2.639,0,0,0,2.215-.72l1.945-1.88a1.349,1.349,0,0,1,1.884,0l1.945,1.88a2.638,2.638,0,0,0,2.214.721l2.679-.38A1.347,1.347,0,0,1,30.052,5l.467,2.663a2.635,2.635,0,0,0,1.369,1.884l2.389,1.267a1.349,1.349,0,0,1,.584,1.792l-1.19,2.427a2.641,2.641,0,0,0,0,2.33L34.858,19.8a1.349,1.349,0,0,1-.584,1.792l-2.388,1.267a2.634,2.634,0,0,0-1.369,1.884l-.467,2.663a1.348,1.348,0,0,1-1.522,1.11l-2.68-.38a2.639,2.639,0,0,0-2.215.72l-1.945,1.88a1.349,1.349,0,0,1-1.883,0Zm14.935,3.515a.648.648,0,0,0-.486.486l-1.112,4.82-9.2-9.2.59-.571a1.368,1.368,0,0,1,1.132-.368l2.678.379a2.643,2.643,0,0,0,2.982-2.168l.407-2.318,7.827,7.826Z" transform="translate(0 0)" fill="#ca2026"/>
    <path id="Tracé_20699" data-name="Tracé 20699" d="M36.45,19.723a9.72,9.72,0,0,0-2.356-6.345.648.648,0,1,0-.981.844,8.419,8.419,0,1,1-1.7-1.508.648.648,0,1,0,.722-1.076,9.725,9.725,0,1,0,4.315,8.085Z" transform="translate(-5.977 -3.517)" fill="#ca2026"/>
    <path id="Tracé_20700" data-name="Tracé 20700" d="M33.094,20.194l-5.052,5.32-2.42-2.757a.648.648,0,1,0-.973.855l2.884,3.29a.648.648,0,0,0,.475.221h.013a.648.648,0,0,0,.47-.2l5.54-5.835a.648.648,0,1,0-.94-.892Z" transform="translate(-8.602 -7.027)" fill="#ca2026"/>
  </g>
</svg>
