<svg xmlns="http://www.w3.org/2000/svg" width="55.139" height="53.875" viewBox="0 0 55.139 53.875"><g transform="translate(0)"><path d="M52.4,24.7a24.2,24.2,0,0,0-48.366,0,5.692,5.692,0,0,0-3.387,5.2v6.385A5.693,5.693,0,0,0,6.33,41.966a3.683,3.683,0,0,0,3.679-3.679v-10.4A3.672,3.672,0,0,0,6.69,24.242a21.56,21.56,0,0,1,43.041,0,3.672,3.672,0,0,0-3.315,3.643v10.4a3.67,3.67,0,0,0,3.364,3.647V44.56a5.373,5.373,0,0,1-5.368,5.367H40.438a3.951,3.951,0,0,0-3.752-2.671h-4.1a3.933,3.933,0,0,0-1.67.366A4,4,0,0,0,28.6,51.246a4,4,0,0,0,3.991,3.991h4.1a4.006,4.006,0,0,0,3.754-2.672h3.972a8.014,8.014,0,0,0,8.005-8v-3.1a5.691,5.691,0,0,0,3.364-5.186V29.892A5.692,5.692,0,0,0,52.4,24.7ZM7.371,27.886v10.4a1.043,1.043,0,0,1-1.042,1.042A3.053,3.053,0,0,1,3.28,36.278V29.893a3.052,3.052,0,0,1,3.049-3.049A1.043,1.043,0,0,1,7.371,27.886ZM38.009,51.529A1.359,1.359,0,0,1,36.685,52.6h-4.1a1.352,1.352,0,0,1-.561-2.583,1.311,1.311,0,0,1,.561-.122h4.1a1.358,1.358,0,0,1,1.324,1.634ZM53.144,36.278A3.053,3.053,0,0,1,50.1,39.327a1.043,1.043,0,0,1-1.042-1.042v-10.4A1.043,1.043,0,0,1,50.1,26.844a3.053,3.053,0,0,1,3.049,3.049Z" transform="translate(-0.643 -1.361)" fill="#fff"/><path d="M38.6,38.492A5.6,5.6,0,0,0,44.187,32.9V21.517A5.6,5.6,0,0,0,38.6,15.929H21.519a5.594,5.594,0,0,0-5.588,5.588V32.9a5.594,5.594,0,0,0,5.588,5.588h.1v2.951a2.739,2.739,0,0,0,2.736,2.747,2.682,2.682,0,0,0,1.931-.815L31.2,38.492Zm-8.872-2.254-5.312,5.283a.066.066,0,0,1-.091.021.088.088,0,0,1-.061-.1V37.173a1.319,1.319,0,0,0-1.319-1.319H21.52A2.954,2.954,0,0,1,18.57,32.9V21.517a2.953,2.953,0,0,1,2.951-2.951H38.6a2.957,2.957,0,0,1,2.951,2.951V32.9A2.954,2.954,0,0,1,38.6,35.855H30.657A1.32,1.32,0,0,0,29.727,36.238Z" transform="translate(-2.489 -3.121)" fill="#fff"/><path d="M24.446,26.787a1.946,1.946,0,1,0,1.947,1.946A1.949,1.949,0,0,0,24.446,26.787Z" transform="translate(-3.283 -4.432)" fill="#fff"/><path d="M31.732,26.787a1.946,1.946,0,1,0,1.947,1.946A1.949,1.949,0,0,0,31.732,26.787Z" transform="translate(-4.163 -4.432)" fill="#fff"/><path d="M39.018,26.787a1.946,1.946,0,1,0,1.947,1.946A1.949,1.949,0,0,0,39.018,26.787Z" transform="translate(-5.043 -4.432)" fill="#fff"/></g></svg>