<svg xmlns="http://www.w3.org/2000/svg" xmlns:xlink="http://www.w3.org/1999/xlink" width="64.947" height="64.947" viewBox="0 0 64.947 64.947"><defs><clipPath id="a"><path d="M0-682.665H64.947v64.947H0Z" transform="translate(0 682.665)" fill="none" stroke="#fff" stroke-width="1.333"/></clipPath></defs><g transform="translate(0)"><g transform="translate(51.434 5.677)"><path d="M0,0H8.3" fill="none" stroke="#fff" stroke-linecap="round" stroke-linejoin="round" stroke-miterlimit="10" stroke-width="3"/></g><g transform="translate(46.72 5.677)"><path d="M0,0H1.012" fill="none" stroke="#fff" stroke-linecap="round" stroke-linejoin="round" stroke-miterlimit="10" stroke-width="3"/></g><g transform="translate(46.72 10.146)"><path d="M0,0H13.015" fill="none" stroke="#fff" stroke-linecap="round" stroke-linejoin="round" stroke-miterlimit="10" stroke-width="3"/></g><g transform="translate(0)"><g clip-path="url(#a)"><g transform="translate(34.731 22.917)"><path d="M-50.514,0V3.893A2.911,2.911,0,0,1-53.425,6.8h-2.4" transform="translate(55.825)" fill="none" stroke="#fff" stroke-linecap="round" stroke-linejoin="round" stroke-miterlimit="10" stroke-width="3"/></g><g transform="translate(0.951 59.865)"><path d="M-446.78,0h-44.929a2.046,2.046,0,0,0-2.046,2.046,2.046,2.046,0,0,0,2.046,2.046h44.929a2.046,2.046,0,0,0,2.046-2.046A2.046,2.046,0,0,0-446.78,0Z" transform="translate(493.755)" fill="none" stroke="#fff" stroke-linecap="round" stroke-linejoin="round" stroke-miterlimit="10" stroke-width="3"/></g><g transform="translate(19.659 46.323)"><path d="M-79.466-128.8a6.779,6.779,0,0,1,1.75-4.534l.025-.028a5.78,5.78,0,0,0,1.475-3.865,5.8,5.8,0,0,0-2.94-5.048.5.5,0,0,0-.747.432v4.317a1.31,1.31,0,0,1-1.31,1.31h-1.61a1.31,1.31,0,0,1-1.31-1.31v-4.317a.5.5,0,0,0-.747-.432,5.8,5.8,0,0,0-2.94,5.048,5.78,5.78,0,0,0,1.475,3.865l.025.028a6.779,6.779,0,0,1,1.75,4.534" transform="translate(87.821 142.342)" fill="none" stroke="#fff" stroke-linecap="round" stroke-linejoin="round" stroke-miterlimit="10" stroke-width="3"/></g><g transform="translate(5.856 56.152)"><path d="M0,0,.2,3.713" fill="none" stroke="#fff" stroke-linecap="round" stroke-linejoin="round" stroke-miterlimit="10" stroke-width="3"/></g><g transform="translate(5.11 39.415)"><path d="M-378.118-194.5l.943-17.371a2.92,2.92,0,0,0-2.916-3.079h-34.862a2.92,2.92,0,0,0-2.916,3.079l.5,9.243" transform="translate(417.873 214.949)" fill="none" stroke="#fff" stroke-linecap="round" stroke-linejoin="round" stroke-miterlimit="10" stroke-width="3"/></g><g transform="translate(45.613 46.099)"><path d="M-34.218-135.253v-3.985a16.328,16.328,0,0,0-3.6-10.235" transform="translate(37.816 149.473)" fill="none" stroke="#fff" stroke-linecap="round" stroke-linejoin="round" stroke-miterlimit="10" stroke-width="3"/></g><g transform="translate(1.713 46.099)"><path d="M-34.218,0a16.328,16.328,0,0,0-3.6,10.235V14.22" transform="translate(37.816)" fill="none" stroke="#fff" stroke-linecap="round" stroke-linejoin="round" stroke-miterlimit="10" stroke-width="3"/></g><g transform="translate(12.611 4.559)"><path d="M-214.341-40.277h-.107a1.069,1.069,0,0,1-1.069-1.069,3.166,3.166,0,0,0-3.166-3.166h-10.076a8.119,8.119,0,0,0-8.119,8.119v5.365a1.852,1.852,0,0,0,1.243,1.749l2,.7a1.075,1.075,0,0,0,1.428-1.016l0-3.783a3.312,3.312,0,0,1,3.277-3.346h.04a5.258,5.258,0,0,1,1.632.253,9.276,9.276,0,0,0,2.875.476h.721a9.276,9.276,0,0,0,2.875-.476,5.258,5.258,0,0,1,1.632-.253h.04a3.312,3.312,0,0,1,3.277,3.346l0,3.784a1.074,1.074,0,0,0,1.428,1.016l2-.7a1.852,1.852,0,0,0,1.243-1.749v-6.084A3.166,3.166,0,0,0-214.341-40.277Z" transform="translate(236.877 44.512)" fill="none" stroke="#fff" stroke-linecap="round" stroke-linejoin="round" stroke-miterlimit="10" stroke-width="3"/></g><g transform="translate(15.078 25.31)"><path d="M0,0H.018a9.826,9.826,0,0,0,3.3,7.206,10.808,10.808,0,0,0,7.115,2.725,10.81,10.81,0,0,0,7.092-2.785A9.81,9.81,0,0,0,20.766.075" fill="none" stroke="#fff" stroke-linecap="round" stroke-linejoin="round" stroke-miterlimit="10" stroke-width="3"/></g><g transform="translate(10.881 17.627)"><path d="M-16.454,0a2.114,2.114,0,0,0-1.73,2.078V5.691a2.115,2.115,0,0,0,2.115,2.115h2.083V2.592" transform="translate(18.184)" fill="none" stroke="#fff" stroke-linecap="round" stroke-linejoin="round" stroke-miterlimit="10" stroke-width="3"/></g><g transform="translate(35.845 17.627)"><path d="M0-24.657v5.214H2.083A2.115,2.115,0,0,0,4.2-21.558v-3.613a2.114,2.114,0,0,0-1.73-2.078" transform="translate(0 27.249)" fill="none" stroke="#fff" stroke-linecap="round" stroke-linejoin="round" stroke-miterlimit="10" stroke-width="3"/></g><g transform="translate(28.604 27.916)"><path d="M-38.4-31.375h-2.388a1.649,1.649,0,0,1-1.649-1.649,1.649,1.649,0,0,1,1.649-1.649H-38.4a1.649,1.649,0,0,1,1.649,1.649A1.649,1.649,0,0,1-38.4-31.375Z" transform="translate(42.433 34.673)" fill="none" stroke="#fff" stroke-linecap="round" stroke-linejoin="round" stroke-miterlimit="10" stroke-width="3"/></g><g transform="translate(30.757 33.792)"><path d="M-13.8-53.478a2.769,2.769,0,0,1-1.451-2.434V-59.1" transform="translate(15.255 59.101)" fill="none" stroke="#fff" stroke-linecap="round" stroke-linejoin="round" stroke-miterlimit="10" stroke-width="3"/></g><g transform="translate(18.712 33.782)"><path d="M-13.831,0V3.2a2.77,2.77,0,0,1-1.454,2.434" transform="translate(15.285)" fill="none" stroke="#fff" stroke-linecap="round" stroke-linejoin="round" stroke-miterlimit="10" stroke-width="3"/></g><g transform="translate(42.461 0.991)"><path d="M-204.818-43.828v-1.841a2.767,2.767,0,0,0-2.767-2.767h-16a2.767,2.767,0,0,0-2.767,2.767v8a2.767,2.767,0,0,0,2.767,2.767,1.616,1.616,0,0,1,1.616,1.616v4.949a.619.619,0,0,0,1.151.319l3.657-6.1a1.616,1.616,0,0,1,1.386-.785h8.192a2.767,2.767,0,0,0,2.767-2.767V-39.38" transform="translate(226.353 48.436)" fill="none" stroke="#fff" stroke-linecap="round" stroke-linejoin="round" stroke-miterlimit="10" stroke-width="3"/></g></g></g></g></svg>