<svg xmlns="http://www.w3.org/2000/svg" width="64.94" height="64.075" viewBox="0 0 64.94 64.075"><g transform="translate(0 0)"><path d="M64.675,114.241,53.805,100.122a1.273,1.273,0,0,0-1.692-.3L45.1,104.287H35.943a1.262,1.262,0,0,0-.35.058l-7.1,2.043-7.363-2.014-7.155-4.55a1.273,1.273,0,0,0-1.674.274L.282,114.99a1.273,1.273,0,0,0,.161,1.765l6.3,5.423L12.4,129.8a4.5,4.5,0,0,0,2.829,7.553,4.53,4.53,0,0,0-.053.688,4.5,4.5,0,0,0,4.5,4.5h.048c0,.031,0,.061,0,.092a4.5,4.5,0,0,0,4.5,4.5,4.591,4.591,0,0,0,.7-.055,4.5,4.5,0,0,0,7.658,2.74l.688-.688.289.233a4.5,4.5,0,0,0,7.627-3.3,4.492,4.492,0,0,0,4.568-4.566,4.5,4.5,0,0,0,4.568-4.57,4.5,4.5,0,0,0,3.844-6.949l4.128-8.645,6.206-5.34a1.273,1.273,0,0,0,.178-1.742Zm-51.1-11.658,5.145,3.271L7.524,119.49l-4.485-3.86Zm.726,28.909,1.553-1.553c.047-.047.1-.092.147-.133a1.949,1.949,0,0,1,1.061-.431h.033c.055,0,.111-.007.167-.007a1.942,1.942,0,0,1,1.393.612,2,2,0,0,1-.086,2.77l-1.506,1.506a1.953,1.953,0,0,1-2.762-2.763Zm3.995,7.925a1.953,1.953,0,0,1,0-2.762l3.011-3.011a1.974,1.974,0,0,1,2.221-.383,1.947,1.947,0,0,1,1.076,2.017,2.061,2.061,0,0,1-.582,1.177l-2.963,2.963a1.953,1.953,0,0,1-2.763,0Zm4.546,4.59a1.953,1.953,0,0,1,0-2.762l3.01-3.011a1.975,1.975,0,0,1,2.361-.31,1.944,1.944,0,0,1,.932,1.974,2.064,2.064,0,0,1-.579,1.146L25.6,144.008a1.953,1.953,0,0,1-2.763,0Zm5.178,4a1.955,1.955,0,0,1,0-2.762l1.553-1.553c.047-.047.1-.091.147-.133l0,0a1.947,1.947,0,0,1,.866-.4l.022,0c.055-.01.11-.018.165-.023l.067,0c.046,0,.091-.005.137,0a1.941,1.941,0,0,1,1.393.612,1.765,1.765,0,0,1,.126.148,2.016,2.016,0,0,1-.22,2.63l-1.5,1.5a1.955,1.955,0,0,1-2.762,0ZM51.771,133.8a1.955,1.955,0,0,1-2.762,0,1.162,1.162,0,0,0-.087-.078l-8.188-8.274a1.273,1.273,0,0,0-1.81,1.792L47.2,135.6l0,0a1.953,1.953,0,1,1-2.763,2.763L38.9,132.774a1.273,1.273,0,0,0-1.81,1.792l5.452,5.508a1.207,1.207,0,0,0,.089.1,1.953,1.953,0,1,1-2.763,2.762l-3.022-3.053a1.273,1.273,0,0,0-1.81,1.791l2.938,2.968a1.136,1.136,0,0,0,.09.1A1.953,1.953,0,1,1,35.3,147.5a2.815,2.815,0,0,0-.289-.23c-.083-.063-.105-.107-.063-.209s.105-.2.147-.3.084-.233.121-.352a4.591,4.591,0,0,0,.165-1.959,4.454,4.454,0,0,0-3.8-3.833,4.542,4.542,0,0,0-1.09-4.1,4.467,4.467,0,0,0-3.208-1.408h-.134a4.456,4.456,0,0,0-4.412-4.59,4.58,4.58,0,0,0-1.087.115,4.457,4.457,0,0,0-4.366-3.821,4.51,4.51,0,0,0-3.074,1.156L9.3,121.344,21.072,107l3.753,1.027-4.9,8.649a4.5,4.5,0,0,0,1.7,6.134q.1.056.2.106l.015.007a4.532,4.532,0,0,0,.54.226,4.5,4.5,0,0,0,5.38-2.036l3.185-5.621,5.687.4,15.144,15.144a1.956,1.956,0,0,1,0,2.763Zm.528-5.837L38.091,113.756a1.126,1.126,0,0,0-.084-.077,1.274,1.274,0,0,0-.726-.292l-6.964-.494a1.294,1.294,0,0,0-1.2.643l-3.581,6.32a1.953,1.953,0,1,1-3.4-1.926l4.781-8.437,1.937-.557.038-.013,7.23-2.088h8.736L55.767,120.7Zm5.137-9.264L47.35,105.871,52.5,102.6l9.424,12.241Zm0,0" transform="translate(0.001 -87.052)" fill="#fff"/><path d="M301.418,40.116a1.27,1.27,0,0,0,.9-.373l8.7-8.7a1.273,1.273,0,0,0-1.8-1.8l-8.7,8.7a1.274,1.274,0,0,0,.9,2.174Zm0,0" transform="translate(-262.076 -25.272)" fill="#fff"/><path d="M132.267,39.743a1.273,1.273,0,0,0,1.8-1.8l-8.7-8.7a1.273,1.273,0,1,0-1.8,1.8Zm0,0" transform="translate(-107.57 -25.273)" fill="#fff"/><path d="M247.234,50.444a1.274,1.274,0,0,0,1.273-1.273v-7.2a1.273,1.273,0,0,0-2.547,0v7.2A1.274,1.274,0,0,0,247.234,50.444Zm0,0" transform="translate(-214.764 -35.6)" fill="#fff"/><path d="M246.081,2.257a1.272,1.272,0,1,0,1.95-1.5,1.273,1.273,0,0,0-1.95,1.5Zm0,0" transform="translate(-214.786 -0.5)" fill="#fff"/></g></svg>