<svg xmlns="http://www.w3.org/2000/svg" width="53.468" height="53.467" viewBox="0 0 53.468 53.467"><g transform="translate(0 0)"><path d="M179.867,210.433a1.566,1.566,0,1,1-1.566-1.566A1.567,1.567,0,0,1,179.867,210.433Zm0,0" transform="translate(-158.278 -187.055)" fill="#fff"/><path d="M44.351,11.745H40.045V9.117A9.111,9.111,0,0,0,30.928,0H9.117A9.111,9.111,0,0,0,0,9.117V38.479a1.567,1.567,0,0,0,2.569,1.2L12.2,31.656h1.222v4.306a9.111,9.111,0,0,0,9.117,9.117H41.267L50.9,53.1a1.566,1.566,0,0,0,2.569-1.2V20.862a9.111,9.111,0,0,0-9.117-9.116ZM11.633,28.523a1.566,1.566,0,0,0-1,.363l-7.5,6.248V9.117A5.98,5.98,0,0,1,9.117,3.133H30.928a5.98,5.98,0,0,1,5.984,5.984V22.54a5.991,5.991,0,0,1-5.984,5.983Zm38.7,20.034-7.5-6.248a1.566,1.566,0,0,0-1-.363h-19.3a5.985,5.985,0,0,1-5.984-5.984V31.656H30.928a9.068,9.068,0,0,0,5.265-1.678h7.319a1.566,1.566,0,0,0,0-3.133h-4.55a9.049,9.049,0,0,0,1.054-3.578h3.5a1.566,1.566,0,1,0,0-3.133H40.045V14.878h4.306a5.983,5.983,0,0,1,5.984,5.983Zm0,0" transform="translate(0 0)" fill="#fff"/><path d="M139.7,70.025a2.628,2.628,0,1,1,2.628,2.63,1.566,1.566,0,0,0-1.566,1.566V75.9a1.566,1.566,0,1,0,3.133,0v-.328a5.762,5.762,0,1,0-7.328-5.547v0a1.566,1.566,0,0,0,3.133,0Zm0,0" transform="translate(-122.304 -57.554)" fill="#fff"/><path d="M230.567,321.332H210.433a1.566,1.566,0,0,0,0,3.133h20.134a1.566,1.566,0,1,0,0-3.133Zm0,0" transform="translate(-187.055 -287.776)" fill="#fff"/></g></svg>